<svg width="178" height="48" viewBox="0 0 178 48" fill="none" xmlns="http://www.w3.org/2000/svg">
<path d="M46.4532 24.3462C46.4532 37.0221 36.1774 47.298 23.5015 47.298C10.8256 47.298 0.549803 37.0221 0.549803 24.3462C0.549803 11.6704 10.8256 1.39453 23.5015 1.39453C36.1774 1.39453 46.4532 11.6704 46.4532 24.3462Z" fill="white" stroke="#E8E8E8" stroke-width="1.09961"/>
<path d="M36.3057 27.6567L35.5027 29.0519L31.9357 35.2185L31.4948 35.9886H14.094L16.0684 32.5663H29.5204L32.3503 27.6567L29.5401 22.7866H23.571C23.1964 23.327 22.6581 23.7327 22.0354 23.9439C21.4127 24.1551 20.7386 24.1605 20.1126 23.9595C19.4866 23.7584 18.9418 23.3615 18.5585 22.8272C18.1752 22.293 17.9738 21.6497 17.9839 20.9922C17.994 20.3348 18.2152 19.698 18.6148 19.1758C19.0143 18.6536 19.5711 18.2737 20.2031 18.092C20.835 17.9104 21.5086 17.9366 22.1244 18.1669C22.7403 18.3971 23.2659 18.8193 23.6236 19.3709H31.5211L31.9423 20.0949L35.3448 26.018L36.3057 27.6567Z" fill="#F68A3B"/>
<path d="M10.6974 21.0294L11.5003 19.6407L15.0673 13.4741L15.5148 12.7041H32.8959L30.9215 16.1198H17.4826L14.6527 21.0294L17.4629 25.8995H23.4321C23.8056 25.3583 24.3431 24.9516 24.9654 24.7392C25.5877 24.5268 26.2617 24.52 26.8882 24.7199C27.5146 24.9197 28.0602 25.3156 28.4445 25.8491C28.8288 26.3826 29.0315 27.0255 29.0226 27.683C29.0137 28.3405 28.7938 28.9777 28.3952 29.5006C27.9967 30.0236 27.4406 30.4046 26.809 30.5875C26.1774 30.7704 25.5038 30.7454 24.8875 30.5163C24.2712 30.2872 23.7448 29.8661 23.386 29.3151H15.4885L15.0673 28.5912L11.6648 22.7076L10.6974 21.0294Z" fill="#4464AF"/>
<path d="M69.0447 18.7884L69.0276 17.2727L69.0105 15.7569L64.6044 15.7521C62.181 15.7494 59.9252 15.7681 59.5916 15.7934C58.7424 15.858 58.3144 15.9234 58.3144 15.9885C58.3144 16.0191 58.2282 16.0442 58.1229 16.0442C58.0175 16.0442 57.9313 16.073 57.9313 16.1081C57.9313 16.1432 57.8594 16.172 57.7716 16.172C57.6838 16.172 57.612 16.2007 57.612 16.2358C57.612 16.2709 57.5704 16.2997 57.5196 16.2997C57.419 16.2997 56.84 16.5929 56.7843 16.672C56.7654 16.6989 56.6493 16.7904 56.5264 16.8753C56.25 17.0664 56.2163 17.1 55.9817 17.4172C55.8778 17.5577 55.7783 17.687 55.7605 17.7045C55.7292 17.7354 55.6309 17.9047 55.5101 18.1356C55.3704 18.4024 55.2544 18.7145 55.1954 18.9817C55.1606 19.1397 55.0984 19.4271 55.0572 19.6202C54.9222 20.2531 55.0412 22.056 55.2573 22.6535C55.3848 23.0059 55.7147 23.6432 55.7697 23.6432C55.7995 23.6432 55.824 23.681 55.824 23.7273C55.824 23.9238 56.943 24.9204 57.1637 24.9204C57.1995 24.9204 57.2289 24.9491 57.2289 24.9842C57.2289 25.0194 57.2863 25.0481 57.3566 25.0481C57.4268 25.0481 57.4843 25.0768 57.4843 25.112C57.4843 25.1471 57.536 25.1758 57.5992 25.1758C57.6624 25.1758 57.7415 25.1996 57.7748 25.2286C57.8561 25.2992 58.2431 25.4118 58.8253 25.5341C59.2024 25.6134 59.976 25.6448 62.4651 25.6821C64.8168 25.7174 65.6751 25.7506 65.8176 25.812C66.5908 26.1447 66.8166 26.3253 67.0665 26.8112C67.203 27.0766 67.2219 27.1949 67.2173 27.7576C67.2131 28.274 67.1845 28.462 67.0721 28.7127C66.8297 29.2533 66.1351 29.7735 65.6558 29.7735C65.5206 29.7735 65.3923 29.8023 65.3706 29.8374C65.3448 29.8791 63.5926 29.9012 60.3222 29.9012H55.3131V31.4338V32.9664H60.1061C63.0258 32.9664 65.1411 32.9401 65.518 32.8992C66.3641 32.8073 67.1021 32.656 67.446 32.5039C67.604 32.434 67.8274 32.3353 67.9424 32.2847C68.2113 32.1663 68.9726 31.593 69.1382 31.3842C69.2084 31.2956 69.3306 31.1569 69.4096 31.076C69.4887 30.995 69.5533 30.8843 69.5533 30.83C69.5533 30.7758 69.5785 30.7314 69.6093 30.7314C69.6653 30.7314 69.9008 30.2302 70.0145 29.8693C70.3812 28.7041 70.4208 27.5623 70.1393 26.2614C70.0152 25.6879 69.7359 25.0326 69.5373 24.8491C69.4758 24.7922 69.4256 24.7256 69.4256 24.7008C69.4256 24.6761 69.3877 24.618 69.3414 24.5717C69.295 24.5254 69.1873 24.4052 69.1019 24.3048C68.9166 24.0868 68.3899 23.7035 68.1005 23.5759C67.9864 23.5255 67.893 23.4626 67.893 23.4361C67.893 23.4095 67.8355 23.3878 67.7653 23.3878C67.695 23.3878 67.6376 23.3591 67.6376 23.324C67.6376 23.2888 67.5818 23.2601 67.5136 23.2601C67.4454 23.2601 67.3739 23.2346 67.3545 23.2033C67.3353 23.172 67.2258 23.1303 67.1113 23.1106C66.9969 23.0909 66.6158 23.0171 66.2646 22.9466C65.6853 22.8305 65.3669 22.8183 62.8332 22.8158C60.1592 22.8132 59.6564 22.7843 59.3211 22.614C59.2601 22.583 59.1667 22.5577 59.1135 22.5577C59.0603 22.5577 59.0169 22.5289 59.0169 22.4938C59.0169 22.4587 58.9704 22.43 58.9135 22.43C58.7794 22.43 58.3144 21.9649 58.3144 21.8308C58.3144 21.774 58.2857 21.7275 58.2506 21.7275C58.2154 21.7275 58.1867 21.6718 58.1867 21.6036C58.1867 21.5354 58.158 21.4619 58.1229 21.4402C58.0395 21.3886 58.0395 20.2146 58.1229 20.163C58.158 20.1413 58.1867 20.0534 58.1867 19.9677C58.1867 19.8819 58.2154 19.8118 58.2506 19.8118C58.2857 19.8118 58.3144 19.7747 58.3144 19.7293C58.3144 19.4871 58.9653 19.0188 59.4958 18.8792C59.6011 18.8515 61.7928 18.8197 64.366 18.8086L69.0447 18.7884Z" fill="#3370F6"/>
<path d="M76.6425 23.0215L76.626 19.3892L76.6095 15.7569L75.0929 15.7398L73.5763 15.7227V24.3445V32.9664H75.0701C76.3733 32.9664 76.5688 32.9535 76.6027 32.8654C76.624 32.8098 76.6414 31.1853 76.6414 29.2553V25.7463L78.2538 25.7761C80.0363 25.8089 80.7931 25.8581 80.8847 25.9471C80.9181 25.9795 81.0019 26.006 81.071 26.006C81.3757 26.006 82.4524 26.7588 82.4524 26.9717C82.4524 26.9975 82.4884 27.0576 82.5322 27.1054C82.6668 27.2518 83.0055 27.8895 84.1697 30.1886C84.472 30.7857 84.7337 31.2885 84.7513 31.3061C84.7688 31.3237 84.925 31.6254 85.0981 31.9766C85.2714 32.3278 85.4673 32.6942 85.5336 32.7908L85.654 32.9664H87.3099C88.6641 32.9664 88.9658 32.9505 88.9658 32.8795C88.9658 32.8316 88.8363 32.5515 88.6779 32.2569C88.5195 31.9622 88.2697 31.4769 88.1228 31.1784C87.9758 30.8798 87.8396 30.6212 87.82 30.6037C87.7583 30.5482 87.1778 29.3501 87.1778 29.2782C87.1778 29.2404 87.1563 29.1999 87.1299 29.1881C87.1036 29.1765 86.9671 28.937 86.8266 28.656C86.6861 28.3751 86.5497 28.1356 86.5233 28.1239C86.4969 28.1122 86.4754 28.0629 86.4754 28.0144C86.4754 27.9659 86.4001 27.7887 86.308 27.6206C85.878 26.8354 85.7448 26.611 85.6969 26.5913C85.6685 26.5796 85.6453 26.515 85.6453 26.4477C85.6453 26.3803 85.6165 26.3252 85.5814 26.3252C85.5463 26.3252 85.5176 26.2821 85.5176 26.2295C85.5176 26.1768 85.495 26.1337 85.4675 26.1337C85.4399 26.1337 85.3628 26.0403 85.2961 25.9261C84.9862 25.3959 83.6779 24.3457 83.3273 24.3457C83.2167 24.3457 83.0271 24.2074 83.0271 24.1267C83.0271 24.1066 83.0822 24.0902 83.1495 24.0902C83.2168 24.0902 83.2815 24.0687 83.2932 24.0423C83.3049 24.016 83.4233 23.939 83.5564 23.8713C83.6894 23.8036 83.8831 23.6671 83.9868 23.568C84.0905 23.4689 84.1976 23.3878 84.2247 23.3878C84.2518 23.3878 84.3311 23.3118 84.4009 23.2188C84.4707 23.1258 84.6211 22.9478 84.7353 22.8232C84.8495 22.6985 84.9428 22.5591 84.9428 22.5133C84.9428 22.4674 84.967 22.43 84.9967 22.43C85.0262 22.43 85.1046 22.3294 85.1708 22.2065C85.237 22.0835 85.3064 21.983 85.3249 21.983C85.3435 21.983 85.3993 21.8895 85.449 21.7754C85.4986 21.6613 85.5585 21.5535 85.582 21.536C85.6054 21.5184 85.7658 21.2167 85.9383 20.8655C86.1108 20.5142 86.2734 20.2173 86.2998 20.2056C86.3262 20.1939 86.3477 20.1292 86.3477 20.0619C86.3477 19.9946 86.3764 19.9395 86.4116 19.9395C86.4467 19.9395 86.4754 19.9074 86.4754 19.8681C86.4754 19.7723 87.0692 18.5723 87.1299 18.5453C87.1563 18.5336 87.1778 18.4713 87.1778 18.407C87.1778 18.3426 87.1994 18.2803 87.2257 18.2686C87.2521 18.2569 87.3886 18.0031 87.5291 17.7045C87.6695 17.406 87.806 17.1522 87.8324 17.1405C87.8588 17.1287 87.8803 17.0641 87.8803 16.9968C87.8803 16.9295 87.909 16.8744 87.9441 16.8744C87.9793 16.8744 88.008 16.8193 88.008 16.752C88.008 16.6847 88.0295 16.62 88.0559 16.6083C88.1123 16.5833 88.455 15.8784 88.455 15.7874C88.455 15.7141 85.3311 15.701 85.2271 15.7738C85.1902 15.7996 85.0468 16.0506 84.9084 16.3316C84.77 16.6126 84.635 16.852 84.6082 16.8637C84.5815 16.8755 84.5597 16.9401 84.5597 17.0074C84.5597 17.0748 84.531 17.1298 84.4958 17.1298C84.4607 17.1298 84.432 17.1631 84.432 17.2038C84.432 17.3012 83.967 18.2411 83.9052 18.2686C83.8788 18.2803 83.8573 18.3426 83.8573 18.407C83.8573 18.4713 83.8354 18.5336 83.8087 18.5453C83.7472 18.5723 83.1548 19.7693 83.1548 19.8668C83.1548 19.9068 83.1261 19.9395 83.091 19.9395C83.0559 19.9395 83.0271 19.9946 83.0271 20.0619C83.0271 20.1292 83.0056 20.1939 82.9792 20.2056C82.9529 20.2173 82.8597 20.3706 82.7721 20.5462C82.6845 20.7218 82.5767 20.9034 82.5326 20.9498C82.4885 20.9962 82.4524 21.0897 82.4524 21.1573C82.4524 21.2251 82.4307 21.2805 82.4041 21.2805C82.3776 21.2805 82.3147 21.3739 82.2644 21.4881C82.2141 21.6022 82.1424 21.7285 82.1051 21.7688C82.0679 21.8091 81.9368 21.9733 81.8138 22.1336C81.6909 22.2939 81.5598 22.4262 81.5226 22.4275C81.4853 22.4289 81.3931 22.4874 81.3177 22.5577C81.2423 22.6279 81.1277 22.6854 81.063 22.6854C80.9983 22.6854 80.9181 22.7101 80.8847 22.7402C80.7318 22.8785 79.9377 22.956 78.3501 22.9876L76.6425 23.0215Z" fill="#3370F6"/>
<path d="M94.5214 32.9664V24.3457V15.725H93.0208H91.5201V24.3457V32.9664H93.0208H94.5214Z" fill="#3370F6"/>
<path d="M101.546 27.5066C101.504 27.4807 101.482 25.4412 101.482 21.596V15.725L100.029 15.73C99.23 15.7327 98.5405 15.7495 98.4965 15.7672C98.3726 15.8173 98.3844 27.1203 98.5094 28.0494C98.6097 28.7945 98.7453 29.3637 98.8935 29.6606C98.9473 29.7686 98.9914 29.8957 98.9914 29.943C98.9914 29.9903 99.0201 30.0289 99.0553 30.0289C99.0904 30.0289 99.1191 30.0864 99.1191 30.1567C99.1191 30.2269 99.1479 30.2844 99.183 30.2844C99.2181 30.2844 99.2468 30.3231 99.2468 30.3704C99.2468 30.4177 99.3043 30.5227 99.3746 30.6037C99.4448 30.6846 99.5031 30.7681 99.5041 30.789C99.5068 30.8459 100.063 31.4338 100.114 31.4338C100.138 31.4338 100.204 31.4844 100.261 31.5463C100.419 31.7181 100.788 31.9763 101.019 32.077C101.133 32.1267 101.226 32.1891 101.226 32.2157C101.226 32.2422 101.281 32.2639 101.349 32.2639C101.416 32.2639 101.481 32.2855 101.493 32.312C101.524 32.3838 102.279 32.623 102.823 32.7335C103.774 32.9268 105.022 32.977 108.346 32.9555L111.603 32.9344L111.62 31.4178L111.637 29.9012H108C105.644 29.9012 104.349 29.8788 104.323 29.8374C104.302 29.8023 104.129 29.7735 103.94 29.7735C103.751 29.7735 103.579 29.7448 103.557 29.7097C103.535 29.6745 103.462 29.6458 103.393 29.6458C103.324 29.6458 103.218 29.6203 103.157 29.589C103.096 29.5578 102.932 29.4788 102.792 29.4134C102.464 29.2597 101.913 28.7077 101.808 28.4277C101.763 28.3074 101.7 28.1592 101.668 28.0982C101.636 28.0372 101.61 27.888 101.61 27.7667C101.61 27.6454 101.581 27.5283 101.546 27.5066Z" fill="#3370F6"/>
<path d="M116.929 27.9536C116.823 27.8073 116.795 26.653 116.769 21.3284L116.742 15.725H115.272C114.088 15.725 113.796 15.7419 113.769 15.8122C113.75 15.8603 113.745 18.6836 113.757 22.0862L113.78 28.2729L113.96 28.9409C114.132 29.5814 114.534 30.4664 114.798 30.7881C115.195 31.2708 115.827 31.8317 116.121 31.962C116.218 32.0047 116.297 32.0614 116.297 32.088C116.297 32.1145 116.34 32.1362 116.392 32.1362C116.445 32.1362 116.488 32.165 116.488 32.2001C116.488 32.2352 116.532 32.2639 116.585 32.2639C116.638 32.2639 116.731 32.2893 116.792 32.3203C117.137 32.4956 117.738 32.6742 118.308 32.7708C119.224 32.9259 120.3 32.9666 123.49 32.9664C126.525 32.9664 126.887 32.9557 126.922 32.8654C126.943 32.8098 126.961 32.1201 126.961 31.3328V29.9012H123.289C120.884 29.9012 119.617 29.8792 119.617 29.8374C119.617 29.8019 119.447 29.7735 119.234 29.7735C119.021 29.7735 118.851 29.7452 118.851 29.7097C118.851 29.6745 118.792 29.6458 118.719 29.6458C118.243 29.6458 117.231 28.8229 117.066 28.3024C117.017 28.1457 116.955 27.9887 116.929 27.9536Z" fill="#3370F6"/>
<path d="M142.925 18.7884V17.2567V15.725L138.535 15.7357C133.74 15.7474 132.261 15.807 132.261 15.9887C132.261 16.0193 132.176 16.0442 132.073 16.0442C131.97 16.0442 131.868 16.073 131.846 16.1081C131.824 16.1432 131.751 16.172 131.682 16.172C131.614 16.172 131.559 16.1971 131.559 16.2278C131.559 16.2585 131.48 16.2997 131.383 16.3192C130.985 16.3995 129.776 17.369 129.772 17.6106C129.771 17.6467 129.713 17.7177 129.643 17.7684C129.573 17.819 129.515 17.8945 129.515 17.9361C129.515 17.9777 129.46 18.1222 129.392 18.2572C129.223 18.5949 129.068 19.0965 129.068 19.3086C129.068 19.4056 129.039 19.5027 129.004 19.5245C128.966 19.5483 128.94 20.0028 128.94 20.6739C128.94 21.345 128.966 21.7994 129.004 21.8233C129.039 21.845 129.068 21.96 129.068 22.0787C129.068 22.3146 129.369 23.2151 129.459 23.2494C129.49 23.2612 129.515 23.3258 129.515 23.3931C129.515 23.4604 129.544 23.5155 129.579 23.5155C129.614 23.5155 129.643 23.5539 129.643 23.6009C129.643 23.8051 130.883 24.9204 131.11 24.9204C131.146 24.9204 131.175 24.9491 131.175 24.9842C131.175 25.0194 131.233 25.0481 131.303 25.0481C131.373 25.0481 131.431 25.0768 131.431 25.112C131.431 25.1471 131.483 25.1758 131.546 25.1758C131.609 25.1758 131.688 25.1996 131.721 25.2286C131.803 25.2992 132.19 25.4118 132.772 25.5341C133.151 25.6138 133.912 25.6439 136.426 25.6785C138.793 25.7111 139.622 25.7421 139.68 25.8002C139.723 25.8431 139.824 25.8782 139.905 25.8782C139.985 25.8782 140.052 25.907 140.052 25.9421C140.052 25.9772 140.094 26.006 140.147 26.006C140.199 26.006 140.292 26.0471 140.354 26.0973C140.416 26.1475 140.56 26.265 140.674 26.3584C140.788 26.4518 140.882 26.5687 140.882 26.6183C140.882 26.6678 140.904 26.7084 140.932 26.7084C141.02 26.7084 141.158 27.2937 141.163 27.6934C141.169 28.1056 141.025 28.8157 140.935 28.8157C140.906 28.8157 140.882 28.86 140.882 28.9143C140.882 29.085 140.228 29.6458 140.03 29.6458C139.971 29.6458 139.924 29.6745 139.924 29.7097C139.924 29.7448 139.796 29.7735 139.64 29.7735C139.484 29.7735 139.339 29.8023 139.317 29.8374C139.291 29.8791 137.529 29.9012 134.237 29.9012H129.196V31.3328C129.196 32.1201 129.213 32.8098 129.235 32.8654C129.269 32.9562 129.749 32.9664 134.008 32.9662C139.843 32.9661 140.659 32.903 141.634 32.377C141.749 32.3148 141.886 32.2639 141.937 32.2639C141.989 32.2639 142.031 32.2352 142.031 32.2001C142.031 32.165 142.067 32.1359 142.111 32.1354C142.193 32.1345 142.372 32.0033 142.785 31.6428C142.915 31.5295 143.042 31.4361 143.069 31.4353C143.095 31.4344 143.117 31.397 143.117 31.3521C143.117 31.3072 143.174 31.229 143.244 31.1784C143.315 31.1277 143.372 31.0496 143.372 31.0046C143.372 30.9597 143.401 30.9229 143.436 30.9229C143.471 30.9229 143.5 30.8798 143.5 30.8272C143.5 30.7745 143.529 30.7314 143.564 30.7314C143.599 30.7314 143.628 30.6739 143.628 30.6037C143.628 30.5334 143.655 30.4759 143.689 30.4759C143.722 30.4759 143.768 30.3754 143.791 30.2524C143.814 30.1295 143.859 30.0289 143.89 30.0289C143.921 30.0289 143.947 29.9427 143.947 29.8374C143.947 29.732 143.976 29.6458 144.011 29.6458C144.046 29.6458 144.075 29.5165 144.075 29.3584C144.075 29.2004 144.104 29.0711 144.141 29.0711C144.226 29.0711 144.185 26.7999 144.093 26.3891C144.001 25.978 143.76 25.3185 143.603 25.0525C143.272 24.4875 142.603 23.8489 142.08 23.5981C141.948 23.5351 141.841 23.462 141.84 23.4357C141.84 23.4094 141.784 23.3878 141.716 23.3878C141.647 23.3878 141.574 23.3591 141.552 23.324C141.53 23.2888 141.457 23.2601 141.389 23.2601C141.321 23.2601 141.265 23.2345 141.265 23.2032C141.265 23.172 141.171 23.1306 141.057 23.1114C140.943 23.0922 140.649 23.0271 140.403 22.9669C140.028 22.8752 139.454 22.8497 136.859 22.8102C133.833 22.7641 133.219 22.7312 133.219 22.6148C133.219 22.5834 133.161 22.5577 133.091 22.5577C133.021 22.5577 132.963 22.5289 132.963 22.4938C132.963 22.4587 132.916 22.43 132.859 22.43C132.712 22.43 132.133 21.8248 132.133 21.671C132.133 21.6009 132.105 21.5257 132.069 21.504C132.033 21.4816 132.006 21.1628 132.006 20.7659C132.006 20.3427 132.031 20.0672 132.069 20.0672C132.105 20.0672 132.133 20.0152 132.133 19.9516C132.133 19.8879 132.191 19.7742 132.261 19.6988C132.331 19.6234 132.389 19.541 132.389 19.5157C132.389 19.4239 132.855 19.0455 132.968 19.0455C133.031 19.0455 133.099 19.02 133.119 18.9887C133.201 18.8561 133.868 18.8332 138.28 18.8114L142.925 18.7884Z" fill="#3370F6"/>
<path d="M156.042 20.5714C156.042 18.7318 156.018 17.6819 155.976 17.602C155.915 17.489 155.834 17.4785 155.018 17.4785H154.126V20.4479V23.4172H151.157H148.187V24.3751V25.3329H151.085C153.456 25.3329 153.996 25.3488 154.055 25.4202C154.108 25.4839 154.116 26.2274 154.085 28.185C154.061 29.6577 154.061 30.9403 154.085 31.0353L154.128 31.2078H155.053H155.978V29.8133C155.978 29.0463 155.997 27.7245 156.02 26.8759L156.062 25.3329H158.989H161.917V24.3751V23.4172H158.979H156.042V20.5714Z" fill="#EB7F37"/>
<path d="M171.623 23.4172V20.4479V17.4785H170.742C170.141 17.4785 169.836 17.503 169.784 17.5551C169.726 17.6125 169.707 18.3597 169.707 20.5245V23.4172H166.77H163.832V24.3751V25.3329H166.769H169.706L169.722 28.2544L169.739 31.1759L170.681 31.1936L171.623 31.2112V28.3109C171.623 25.725 171.634 25.4062 171.724 25.3717C171.779 25.3504 173.116 25.3329 174.693 25.3329H177.562V24.3751V23.4172H174.592H171.623Z" fill="#EB7F37"/>
</svg>
